<mxfile host="app.diagrams.net" modified="2024-03-07T20:26:09.328Z" agent="Mozilla/5.0 (Macintosh; Intel Mac OS X 10.15; rv:123.0) Gecko/20100101 Firefox/123.0" version="24.0.0" etag="IZE8kPTl4pAFECbt02HW" type="github">
  <diagram name="Page-1" id="N-wu-rKSxGulzZxUAE4Z">
    <mxGraphModel>
      <root>
        <mxCell id="0" />
        <mxCell id="1" parent="0" />
      </root>
    </mxGraphModel>
  </diagram>
</mxfile>
